# xmcd
#
# Track frame offsets:
#	150
#	20646
#	38927
#	82822
#	131525
#	158150
#	198113
#	208281
#	265812
#
# Disc length: 4079 seconds
#
# Revision: 1
# Processed by: cddbd v1.5.2PL0 Copyright (c) Steve Scherf et al.
# Submitted via: audiograbber 1.83.01
#
DISCID=740fed09
DTITLE=Grateful Dead - 76-06-24 Tower Theatre, Upper Darby PA
DYEAR=1900
DGENRE=
TTITLE0=Promised Land
TTITLE1=Help On The Way
TTITLE2=Slipknot!
TTITLE3=Franklin's Tower
TTITLE4=Samson and Delilah
TTITLE5=Wharf Rat
TTITLE6=Jam
TTITLE7=Dancing In The Streets
TTITLE8=Sugar Magnolia
EXTD=
EXTT0=
EXTT1=
EXTT2=
EXTT3=
EXTT4=
EXTT5=
EXTT6=
EXTT7=
EXTT8=
PLAYORDER=
